<?xml version="1.0" standalone="no"?>
<!DOCTYPE svg PUBLIC "-//W3C//DTD SVG 20010904//EN"
 "http://www.w3.org/TR/2001/REC-SVG-20010904/DTD/svg10.dtd">
<svg version="1.0" xmlns="http://www.w3.org/2000/svg"
 width="1153.000000pt" height="1280.000000pt" viewBox="0 0 1153.000000 1280.000000"
 preserveAspectRatio="xMidYMid meet">
<metadata>
Created by potrace 1.15, written by Peter Selinger 2001-2017
</metadata>
<g transform="translate(0.000000,1280.000000) scale(0.100000,-0.100000)"
fill="#000000" stroke="none">
<path d="M5648 12790 c-64 -11 -143 -38 -202 -67 -58 -30 -5143 -3422 -5204
-3472 -92 -76 -183 -222 -216 -346 -96 -354 108 -734 458 -852 l81 -28 1152
-3 1153 -2 0 -25 c0 -14 -171 -1650 -380 -3635 -209 -1985 -380 -3635 -380
-3665 0 -92 28 -204 77 -305 83 -171 245 -306 443 -368 51 -16 265 -17 3100
-20 3424 -3 3125 -10 3300 75 79 38 108 59 181 132 73 73 94 102 132 181 49
101 77 213 77 305 0 30 -171 1680 -380 3665 -209 1985 -380 3621 -380 3635 l0
25 1153 2 1152 3 81 28 c136 46 282 156 361 272 141 208 159 484 47 709 -41
82 -107 168 -166 217 -60 49 -5145 3442 -5204 3472 -121 61 -311 90 -436 67z
m1506 -2465 c734 -489 1336 -893 1336 -897 0 -4 -172 -8 -382 -10 -369 -4
-385 -5 -448 -27 -136 -48 -242 -120 -327 -222 -51 -63 -117 -191 -138 -269
-37 -136 -48 -12 357 -3857 l384 -3633 -2171 0 -2171 0 383 3633 c210 1997
383 3656 383 3685 0 131 -62 306 -150 424 -55 74 -162 158 -255 203 -123 60
-167 65 -562 65 -194 0 -353 3 -353 8 0 4 613 415 1362 914 l1362 907 27 -17
c15 -9 628 -417 1363 -907z"/>
</g>
</svg>
